<svg class = "icono-plan" width="60" height="60" viewBox="0 0 60 60" fill="none" xmlns="http://www.w3.org/2000/svg">
<path d="M10 15V47.5C10 51.6423 13.3579 55 17.5 55H42.5C46.6423 55 50 51.6423 50 47.5V22.5C50 18.3579 46.6423 15 42.5 15H10ZM10 15V12.5" stroke="#004271" stroke-width="3.75"/>
<path d="M45 15V16.875H46.875V15H45ZM12.6777 16.875H45V13.125H12.6777V16.875ZM46.875 15V10.7651H43.125V15H46.875ZM39.0278 3.9592L12.0338 7.81547L12.5642 11.5278L39.558 7.6715L39.0278 3.9592ZM12.0338 7.81547C9.79095 8.13587 8.125 10.0567 8.125 12.3224H11.875C11.875 11.9229 12.1687 11.5843 12.5642 11.5278L12.0338 7.81547ZM46.875 10.7651C46.875 6.58132 43.1695 3.36752 39.0278 3.9592L39.558 7.6715C41.4408 7.40257 43.125 8.86337 43.125 10.7651H46.875ZM12.6777 13.125C12.2344 13.125 11.875 12.7657 11.875 12.3224H8.125C8.125 14.8367 10.1633 16.875 12.6777 16.875V13.125Z" fill="#004271"/>
<path opacity="0.5" d="M20 30H40" stroke="#004271" stroke-width="3.75" stroke-linecap="round"/>
<path opacity="0.5" d="M20 38.75H33.75" stroke="#004271" stroke-width="3.75" stroke-linecap="round"/>
</svg>



    