<svg width="15" height="15" viewBox="0 0 60 60" fill="none" xmlns="http://www.w3.org/2000/svg">
<g clip-path="url(#clip0_8_13)">
<path d="M53.7257 29.0957H4.13143V48.4629C4.13143 49.0312 4.35719 49.5762 4.75906 49.9781C5.16092 50.3799 5.70596 50.6057 6.27429 50.6057H47.2886C47.57 50.6057 47.8487 50.6611 48.1087 50.7687C48.3687 50.8764 48.605 51.0342 48.804 51.2332C49.0031 51.4322 49.1609 51.6684 49.2686 51.9285C49.3763 52.1885 49.4318 52.4671 49.4318 52.7486C49.4318 53.03 49.3763 53.3087 49.2686 53.5687C49.1609 53.8287 49.0031 54.0649 48.804 54.2639C48.605 54.4629 48.3687 54.6207 48.1087 54.7284C47.8487 54.8361 47.57 54.8915 47.2886 54.8914H4.28571C3.14907 54.8914 2.05898 54.4399 1.25526 53.6362C0.451529 52.8324 0 51.7424 0 50.6057L0 5.52429C0 4.38764 0.451529 3.29756 1.25526 2.49383C2.05898 1.6901 3.14907 1.23857 4.28571 1.23857H19.0286C19.5964 1.23867 20.1586 1.35163 20.6825 1.57087C21.2063 1.79012 21.6814 2.11129 22.08 2.51571L28.6371 9.17143C28.8365 9.37364 29.074 9.53422 29.3359 9.64385C29.5978 9.75347 29.8789 9.80995 30.1629 9.81H53.5714C54.1342 9.81 54.6915 9.92085 55.2115 10.1362C55.7315 10.3516 56.2039 10.6673 56.6019 11.0653C56.9999 11.4632 57.3155 11.9357 57.5309 12.4556C57.7463 12.9756 57.8571 13.5329 57.8571 14.0957V44.6529C57.8571 45.2007 57.6395 45.7261 57.2521 46.1135C56.8647 46.5009 56.3393 46.7186 55.7914 46.7186C55.2436 46.7186 54.7181 46.5009 54.3307 46.1135C53.9434 45.7261 53.7257 45.2007 53.7257 44.6529V29.0957ZM53.7257 24.81V16.2386C53.7257 15.6702 53.4999 15.1252 53.0981 14.7233C52.6962 14.3215 52.1512 14.0957 51.5829 14.0957H29.3743C28.8057 14.0962 28.2427 13.9835 27.7181 13.7642C27.1935 13.545 26.7177 13.2235 26.3186 12.8186L19.7614 6.16286C19.5626 5.96116 19.3258 5.80087 19.0646 5.69126C18.8035 5.58166 18.5232 5.5249 18.24 5.52429H6.27429C5.70596 5.52429 5.16092 5.75005 4.75906 6.15191C4.35719 6.55378 4.13143 7.09882 4.13143 7.66714V24.81H53.7257Z" fill="black"/>
</g>
<defs>
<clipPath id="clip0_8_13">
<rect width="60" height="60" fill="white"/>
</clipPath>
</defs>
</svg>

    