<svg width="20" height="20" viewBox="0 0 60 60" fill="none" xmlns="http://www.w3.org/2000/svg">
<path d="M14.7222 9.375C15.7577 9.375 16.5972 8.53552 16.5972 7.5C16.5972 6.46448 15.7577 5.625 14.7222 5.625V9.375ZM25 5.625C23.9645 5.625 23.125 6.46448 23.125 7.5C23.125 8.53552 23.9645 9.375 25 9.375V5.625ZM45.2777 9.375C49.5535 9.375 53.125 12.9762 53.125 17.5509H56.875C56.875 11.0237 51.741 5.625 45.2777 5.625V9.375ZM14.7222 5.625C8.25897 5.625 3.125 11.0237 3.125 17.5509H6.875C6.875 12.9762 10.4466 9.375 14.7222 9.375V5.625ZM53.125 17.5509C53.125 21.7182 50.1517 25.0892 46.3925 25.6452L46.941 29.3548C52.6047 28.5173 56.875 23.5105 56.875 17.5509H53.125ZM13.6076 25.6452C9.84835 25.0892 6.875 21.7182 6.875 17.5509H3.125C3.125 23.5106 7.39527 28.5173 13.059 29.3548L13.6076 25.6452ZM25 9.375H45.2777V5.625H25V9.375Z" fill="#1C274C"/>
<path d="M30 22.5V35M30 35L35 29.1668M30 35L25 29.1668" stroke="#1C274C" stroke-width="3.75" stroke-linecap="round" stroke-linejoin="round"/>
<path d="M12.5 25C12.5 20.286 12.5 17.9289 13.9645 16.4645C15.4289 15 17.786 15 22.5 15H37.5C42.214 15 44.571 15 46.0355 16.4645C47.5 17.9289 47.5 20.286 47.5 25V40C47.5 44.714 47.5 47.071 46.0355 48.5355C44.571 50 42.214 50 37.5 50H22.5C17.786 50 15.4289 50 13.9645 48.5355C12.5 47.071 12.5 44.714 12.5 40V25Z" stroke="#1C274C" stroke-width="3.75"/>
<path d="M12.5 42.5H32.5M47.5 42.5H42.5" stroke="#1C274C" stroke-width="3.75" stroke-linecap="round" stroke-linejoin="round"/>
</svg>

    