<svg width="20" height="20" viewBox="0 0 50 49" fill="none" xmlns="http://www.w3.org/2000/svg">
<path d="M25 2V17M25 2L18.75 8.25M25 2L31.25 8.25M9.55832 17.0009C10.5957 17.9171 11.25 19.2571 11.25 20.75C11.25 23.5115 9.01143 25.75 6.25 25.75C4.75712 25.75 3.41708 25.0958 2.50093 24.0583M9.55832 17.0009C9.8536 17 10.1669 17 10.5 17H15M9.55832 17.0009C7.3713 17.0077 6.17238 17.0648 5.23005 17.545C4.28923 18.0243 3.52432 18.7892 3.04497 19.73C2.56482 20.6725 2.5077 21.8713 2.50093 24.0583M2.50093 24.0583C2.5 24.3535 2.5 24.667 2.5 25V39C2.5 39.333 2.5 39.6465 2.50093 39.9418M2.50093 39.9418C3.41708 38.9043 4.75712 38.25 6.25 38.25C9.01143 38.25 11.25 40.4885 11.25 43.25C11.25 44.7428 10.5957 46.083 9.55832 46.999M2.50093 39.9418C2.5077 42.1288 2.56482 43.3278 3.04497 44.27C3.52432 45.2108 4.28923 45.9757 5.23005 46.455C6.17238 46.9352 7.3713 46.9922 9.55832 46.999M9.55832 46.999C9.8536 47 10.1669 47 10.5 47H39.5C39.833 47 40.1465 47 40.4418 46.999M40.4418 46.999C39.4043 46.083 38.75 44.7428 38.75 43.25C38.75 40.4885 40.9885 38.25 43.75 38.25C45.2432 38.25 46.5838 38.9047 47.5 39.9427M40.4418 46.999C42.6288 46.9922 43.8278 46.9352 44.77 46.455C45.7108 45.9757 46.4757 45.2108 46.955 44.27C47.435 43.3278 47.4932 42.129 47.5 39.9427M47.5 39.9427C47.501 39.6472 47.5 39.3335 47.5 39V25C47.5 24.667 47.5 24.3535 47.499 24.0583M47.499 24.0583C46.583 25.0958 45.2428 25.75 43.75 25.75C40.9885 25.75 38.75 23.5115 38.75 20.75C38.75 19.2571 39.4043 17.9171 40.4418 17.0009M47.499 24.0583C47.4922 21.8713 47.4352 20.6725 46.955 19.73C46.4757 18.7892 45.7108 18.0243 44.77 17.545C43.8278 17.0648 42.6288 17.0077 40.4418 17.0009M40.4418 17.0009C40.1465 17 39.833 17 39.5 17H35M30 32C30 34.7615 27.7615 37 25 37C22.2385 37 20 34.7615 20 32C20 29.2385 22.2385 27 25 27C27.7615 27 30 29.2385 30 32Z" stroke="black" stroke-width="3.75" stroke-linecap="round" stroke-linejoin="round"/>
</svg>

