<svg width="60" height="60" viewBox="0 0 60 60" fill="004271" xmlns="http://www.w3.org/2000/svg">
<path d="M47.4999 15.0001C46.3984 15.008 45.3121 15.2586 44.3183 15.7339C43.3245 16.2092 42.4476 16.8975 41.7499 17.7501L27.4999 12.5001C27.5027 11.1915 27.1631 9.905 26.5148 8.76832C25.8665 7.63165 24.932 6.68438 23.8043 6.02061C22.6766 5.35685 21.3948 4.9997 20.0863 4.98463C18.7778 4.96956 17.4882 5.2971 16.3455 5.93472C15.2028 6.57234 14.2468 7.49784 13.5724 8.61929C12.8981 9.74073 12.529 11.0191 12.5016 12.3274C12.4743 13.6357 12.7897 14.9283 13.4165 16.077C14.0434 17.2256 14.9599 18.1903 16.0749 18.8751L11.5249 40.0001C9.77899 40.255 8.17883 41.1174 7.00584 42.4355C5.83286 43.7537 5.16217 45.4432 5.11171 47.2069C5.06126 48.9707 5.63427 50.6957 6.72998 52.0788C7.82569 53.4618 9.37394 54.4142 11.1025 54.7686C12.831 55.1229 14.6291 54.8565 16.1806 54.0161C17.7321 53.1758 18.9377 51.8153 19.5853 50.174C20.2328 48.5326 20.281 46.7155 19.7213 45.0422C19.1615 43.3689 18.0298 41.9464 16.5249 41.0251L20.9749 20.0001C22.8579 19.7225 24.5649 18.7394 25.7499 17.2501L39.9999 22.5001C39.9999 23.9834 40.4398 25.4335 41.2639 26.6669C42.088 27.9002 43.2594 28.8615 44.6298 29.4292C46.0003 29.9968 47.5083 30.1454 48.9631 29.856C50.418 29.5666 51.7544 28.8523 52.8032 27.8034C53.8521 26.7545 54.5664 25.4181 54.8558 23.9633C55.1452 22.5084 54.9967 21.0004 54.429 19.63C53.8614 18.2595 52.9001 17.0882 51.6667 16.2641C50.4334 15.4399 48.9833 15.0001 47.4999 15.0001ZM12.4999 50.0001C12.0055 50.0001 11.5221 49.8535 11.111 49.5788C10.6999 49.3041 10.3795 48.9136 10.1902 48.4568C10.001 48 9.95152 47.4973 10.048 47.0124C10.1444 46.5274 10.3825 46.0819 10.7322 45.7323C11.0818 45.3827 11.5273 45.1446 12.0122 45.0481C12.4972 44.9517 12.9998 45.0012 13.4567 45.1904C13.9135 45.3796 14.3039 45.7 14.5786 46.1112C14.8533 46.5223 14.9999 47.0056 14.9999 47.5001C14.9999 48.1631 14.7366 48.799 14.2677 49.2678C13.7989 49.7367 13.163 50.0001 12.4999 50.0001ZM19.9999 15.0001C19.5055 15.0001 19.0221 14.8535 18.611 14.5788C18.1999 14.3041 17.8795 13.9136 17.6902 13.4568C17.501 13 17.4515 12.4973 17.548 12.0124C17.6444 11.5274 17.8825 11.0819 18.2322 10.7323C18.5818 10.3827 19.0273 10.1446 19.5122 10.0481C19.9972 9.95165 20.4998 10.0012 20.9567 10.1904C21.4135 10.3796 21.8039 10.7 22.0786 11.1112C22.3533 11.5223 22.4999 12.0056 22.4999 12.5001C22.4999 13.1631 22.2366 13.799 21.7677 14.2678C21.2989 14.7367 20.663 15.0001 19.9999 15.0001ZM47.4999 25.0001C47.0055 25.0001 46.5221 24.8535 46.111 24.5788C45.6999 24.3041 45.3795 23.9136 45.1902 23.4568C45.001 23 44.9515 22.4973 45.048 22.0124C45.1444 21.5274 45.3825 21.0819 45.7322 20.7323C46.0818 20.3827 46.5273 20.1446 47.0122 20.0481C47.4972 19.9517 47.9998 20.0012 48.4567 20.1904C48.9135 20.3796 49.3039 20.7 49.5786 21.1112C49.8533 21.5223 49.9999 22.0056 49.9999 22.5001C49.9999 23.1631 49.7366 23.799 49.2677 24.2678C48.7989 24.7367 48.163 25.0001 47.4999 25.0001Z" fill="#004271"/>
<path d="M38.7749 47.5H32.4999C31.8369 47.5 31.201 47.7634 30.7322 48.2322C30.2633 48.7011 29.9999 49.337 29.9999 50C29.9999 50.663 30.2633 51.2989 30.7322 51.7678C31.201 52.2366 31.8369 52.5 32.4999 52.5H34.9999C34.9999 53.163 35.2633 53.7989 35.7322 54.2678C36.201 54.7366 36.8369 55 37.4999 55C38.163 55 38.7989 54.7366 39.2677 54.2678C39.7366 53.7989 39.9999 53.163 39.9999 52.5C41.6575 52.3376 43.1827 51.5233 44.24 50.2363C45.2972 48.9493 45.7999 47.2951 45.6374 45.6375C45.475 43.9799 44.6607 42.4547 43.3738 41.3975C42.0868 40.3402 40.4325 39.8376 38.7749 40H36.2749C35.9434 40 35.6255 39.8683 35.3911 39.6339C35.1566 39.3995 35.0249 39.0815 35.0249 38.75C35.0249 38.4185 35.1566 38.1005 35.3911 37.8661C35.6255 37.6317 35.9434 37.5 36.2749 37.5H42.4999C43.163 37.5 43.7989 37.2366 44.2677 36.7678C44.7366 36.2989 44.9999 35.663 44.9999 35C44.9999 34.337 44.7366 33.7011 44.2677 33.2322C43.7989 32.7634 43.163 32.5 42.4999 32.5H39.9999C39.9999 31.837 39.7366 31.2011 39.2677 30.7322C38.7989 30.2634 38.163 30 37.4999 30C36.8369 30 36.201 30.2634 35.7322 30.7322C35.2633 31.2011 34.9999 31.837 34.9999 32.5V32.625C33.4831 32.933 32.1345 33.7928 31.2152 35.0381C30.296 36.2834 29.8715 37.8254 30.0239 39.3657C30.1764 40.906 30.895 42.3349 32.0406 43.3758C33.1861 44.4166 34.6771 44.9954 36.2249 45H38.7249C39.0565 45 39.3744 45.1317 39.6088 45.3661C39.8433 45.6005 39.9749 45.9185 39.9749 46.25C39.9749 46.5815 39.8433 46.8995 39.6088 47.1339C39.3744 47.3683 39.0565 47.5 38.7249 47.5H38.7749Z" fill="#004271"/>
</svg>
