<svg width="20" height="20" viewBox="0 0 60 60" fill="none" xmlns="http://www.w3.org/2000/svg">
<path d="M2.05768 54.318L5.75218 58.0125C7.78639 60 10.1013 59.8363 12.159 57.5682L36.6408 30.9119C37.6463 31.6134 38.5815 31.59 39.7273 31.3562L42.2293 30.8417L43.8896 32.5019L43.7727 33.7412C43.609 35.0273 43.983 36.0093 45.1754 37.2018L47.1398 39.1426C48.3321 40.3585 49.922 40.4286 51.0679 39.2829L58.8545 31.4965C60 30.3507 59.93 28.784 58.7376 27.5682L56.7733 25.604C55.5809 24.4114 54.5752 23.9906 53.3125 24.1776L52.0501 24.3179L50.4598 22.7279L51.1614 19.9921C51.4889 18.636 51.1379 17.5369 49.6649 16.0872L43.8896 10.3351C35.4015 1.89397 24.5285 2.15111 17.0927 9.657C16.0639 10.6858 15.9704 12.0888 16.6251 13.1176C17.1629 14.0061 18.3087 14.544 19.8753 14.1465C23.4996 13.2345 27.124 13.5151 30.6782 15.9236L29.1816 19.7116C28.6204 21.1145 28.6672 22.2602 29.2285 23.3125L2.502 47.9112C0.257252 49.9922 1.78814e-06 52.2603 2.05768 54.318ZM20.8107 10.5923C27.1941 5.82225 35.1442 6.59379 40.8964 12.346L47.1861 18.5892C47.7475 19.1504 47.8179 19.5946 47.654 20.2962L46.7657 24.0374L50.5302 27.802L52.8216 27.5915C53.4998 27.5214 53.71 27.5682 54.2712 28.1059L55.7447 29.6025L49.174 36.1964L47.6775 34.6999C47.1398 34.1621 47.0928 33.9516 47.1632 33.2735L47.3734 30.9586L43.6324 27.2174L39.7506 27.9657C39.0725 28.1059 38.7219 28.1059 38.1373 27.5214L32.9463 22.307C32.3851 21.7458 32.3149 21.4185 32.6189 20.6702L34.9105 15.1988C31.0757 11.5276 26.0016 9.49329 21.1146 11.0599C20.9042 11.1301 20.7639 11.0833 20.6938 10.9898C20.6236 10.8729 20.6236 10.756 20.8107 10.5923ZM5.09743 52.6345C3.90493 51.442 4.32579 50.717 5.12079 49.9922L31.3797 25.7678L34.3024 28.7139L10.0078 54.8792C9.28297 55.6742 8.37107 55.908 7.389 54.9494L5.09743 52.6345Z" fill="black"/>
</svg>
