<svg width="20" height="20" viewBox="0 0 60 60" fill="none" xmlns="http://www.w3.org/2000/svg">
<path d="M7.5 35V25C7.5 15.5719 7.5 10.8579 10.4289 7.92893C13.3579 5 18.0719 5 27.5 5H32.5C41.928 5 46.6422 5 49.571 7.92893C51.204 9.5619 51.9265 11.7497 52.2463 15M52.5 25V35C52.5 44.428 52.5 49.1422 49.571 52.071C46.6422 55 41.928 55 32.5 55H27.5C18.0719 55 13.3579 55 10.4289 52.071C8.79597 50.438 8.07343 48.2502 7.75373 45" stroke="black" stroke-width="3.75" stroke-linecap="round"/>
<path d="M20 35H32.5" stroke="#1C274C" stroke-width="3.75" stroke-linecap="round"/>
<path d="M20 25H22.5M40 25H30" stroke="#1C274C" stroke-width="3.75" stroke-linecap="round"/>
</svg>

    