<svg width="20" height="20" viewBox="0 0 60 60" fill="none" xmlns="http://www.w3.org/2000/svg">
<path d="M37.5 27.5003L27.5 37.5003L22.5 32.5003M10 42.0005V28.6305C10 27.2948 10 26.6265 10.1624 26.0048C10.3064 25.454 10.5445 24.9327 10.8642 24.4616C11.2251 23.93 11.7266 23.4892 12.7319 22.6096L24.7359 12.1061C26.5995 10.4754 27.5315 9.65993 28.581 9.34955C29.5065 9.07588 30.493 9.07588 31.4185 9.34955C32.4687 9.66015 33.402 10.4764 35.2685 12.1096L47.2685 22.6096C48.274 23.4892 48.7755 23.93 49.1365 24.4616C49.4563 24.9327 49.6925 25.454 49.8365 26.0048C49.9988 26.6265 50 27.2948 50 28.6305V42.0092C50 44.804 50 46.2028 49.4555 47.2715C48.9762 48.2123 48.2093 48.9765 47.2685 49.4558C46.2 50.0003 44.8025 50.0003 42.0078 50.0003H17.9923C15.1975 50.0003 13.798 50.0003 12.7295 49.4558C11.7887 48.9765 11.0243 48.2123 10.545 47.2715C10 46.2018 10 44.8007 10 42.0005Z" stroke="black" stroke-width="3.75" stroke-linecap="round" stroke-linejoin="round"/>
</svg>
